<svg xmlns="http://www.w3.org/2000/svg" viewBox="-102 -102 204 204">
<defs><radialGradient id="sea" cx="38%" cy="32%" r="75%"><stop offset="0" stop-color="#1f3d6e" stop-opacity="0.07"/><stop offset="1" stop-color="#1f3d6e" stop-opacity="0.03"/></radialGradient></defs>
<circle r="100" fill="url(#sea)"/>
<circle r="100" fill="none" stroke="#1f3d6e" stroke-opacity="0.35" stroke-width="0.5"/>
<g fill="#1f3d6e"><circle cx="79.74" cy="5.75" r="1.31" fill-opacity="0.16"/><circle cx="84.81" cy="4.89" r="1.31" fill-opacity="0.16"/><circle cx="89.78" cy="3.96" r="1.3" fill-opacity="0.16"/><circle cx="80.28" cy="-0.19" r="1.31" fill-opacity="0.16"/><circle cx="85.34" cy="-1.08" r="1.31" fill-opacity="0.16"/><circle cx="90.29" cy="-2.01" r="1.3" fill-opacity="0.16"/><circle cx="95.14" cy="-3" r="1.29" fill-opacity="0.16"/><circle cx="75.6" cy="-5.3" r="1.32" fill-opacity="0.16"/><circle cx="80.73" cy="-6.15" r="1.31" fill-opacity="0.16"/><circle cx="85.77" cy="-7.04" r="1.3" fill-opacity="0.16"/><circle cx="90.7" cy="-8" r="1.3" fill-opacity="0.16"/><circle cx="95.52" cy="-9" r="1.29" fill-opacity="0.16"/><circle cx="70.78" cy="-10.44" r="1.32" fill-opacity="0.16"/><circle cx="75.99" cy="-11.24" r="1.32" fill-opacity="0.16"/><circle cx="81.09" cy="-12.1" r="1.31" fill-opacity="0.16"/><circle cx="86.1" cy="-13.01" r="1.3" fill-opacity="0.16"/><circle cx="91" cy="-13.97" r="1.3" fill-opacity="0.16"/><circle cx="95.79" cy="-14.99" r="1.29" fill-opacity="0.16"/><circle cx="65.84" cy="-15.6" r="1.33" fill-opacity="0.16"/><circle cx="71.1" cy="-16.35" r="1.32" fill-opacity="0.16"/><circle cx="76.28" cy="-17.17" r="1.32" fill-opacity="0.16"/><circle cx="81.35" cy="-18.03" r="1.31" fill-opacity="0.16"/><circle cx="86.33" cy="-18.96" r="1.3" fill-opacity="0.16"/><circle cx="91.19" cy="-19.94" r="1.29" fill-opacity="0.16"/><circle cx="95.94" cy="-20.97" r="1.29" fill-opacity="0.16"/><circle cx="66.11" cy="-21.48" r="1.33" fill-opacity="0.16"/><circle cx="71.34" cy="-22.25" r="1.32" fill-opacity="0.16"/><circle cx="76.48" cy="-23.08" r="1.31" fill-opacity="0.16"/><circle cx="81.52" cy="-23.96" r="1.31" fill-opacity="0.16"/><circle cx="86.45" cy="-24.89" r="1.3" fill-opacity="0.16"/><circle cx="91.27" cy="-25.89" r="1.29" fill-opacity="0.16"/><circle cx="58.9" cy="-26.36" r="1.33" fill-opacity="0.16"/><circle cx="64.25" cy="-27.06" r="1.32" fill-opacity="0.16"/><circle cx="69.5" cy="-27.82" r="1.32" fill-opacity="0.16"/><circle cx="74.67" cy="-28.64" r="1.31" fill-opacity="0.16"/><circle cx="79.73" cy="-29.52" r="1.31" fill-opacity="0.16"/><circle cx="84.68" cy="-30.45" r="1.3" fill-opacity="0.16"/><circle cx="56.94" cy="-31.92" r="1.33" fill-opacity="0.16"/><circle cx="62.31" cy="-32.61" r="1.32" fill-opacity="0.16"/><circle cx="67.59" cy="-33.36" r="1.32" fill-opacity="0.16"/><circle cx="72.77" cy="-34.17" r="1.31" fill-opacity="0.16"/><circle cx="77.85" cy="-35.04" r="1.31" fill-opacity="0.16"/><circle cx="82.82" cy="-35.97" r="1.3" fill-opacity="0.16"/><circle cx="54.92" cy="-37.45" r="1.33" fill-opacity="0.16"/><circle cx="60.3" cy="-38.13" r="1.32" fill-opacity="0.16"/><circle cx="65.59" cy="-38.87" r="1.32" fill-opacity="0.16"/><circle cx="70.79" cy="-39.67" r="1.31" fill-opacity="0.16"/><circle cx="75.89" cy="-40.53" r="1.3" fill-opacity="0.16"/><circle cx="80.87" cy="-41.46" r="1.3" fill-opacity="0.16"/><circle cx="47.36" cy="-42.34" r="1.33" fill-opacity="0.16"/><circle cx="52.83" cy="-42.94" r="1.33" fill-opacity="0.16"/><circle cx="58.22" cy="-43.6" r="1.32" fill-opacity="0.16"/><circle cx="63.52" cy="-44.33" r="1.32" fill-opacity="0.16"/><circle cx="68.73" cy="-45.13" r="1.31" fill-opacity="0.16"/><circle cx="73.84" cy="-45.98" r="1.3" fill-opacity="0.16"/><circle cx="78.83" cy="-46.9" r="1.3" fill-opacity="0.16"/><circle cx="83.7" cy="-47.87" r="1.29" fill-opacity="0.16"/><circle cx="50.68" cy="-48.38" r="1.32" fill-opacity="0.16"/><circle cx="56.08" cy="-49.03" r="1.32" fill-opacity="0.16"/><circle cx="61.39" cy="-49.75" r="1.31" fill-opacity="0.16"/><circle cx="66.6" cy="-50.53" r="1.31" fill-opacity="0.16"/><circle cx="71.71" cy="-51.38" r="1.3" fill-opacity="0.16"/><circle cx="76.7" cy="-52.28" r="1.29" fill-opacity="0.16"/><circle cx="81.58" cy="-53.25" r="1.29" fill-opacity="0.16"/><circle cx="51.75" cy="-54.15" r="1.32" fill-opacity="0.16"/><circle cx="57.12" cy="-54.83" r="1.31" fill-opacity="0.16"/><circle cx="62.41" cy="-55.58" r="1.31" fill-opacity="0.16"/><circle cx="67.58" cy="-56.4" r="1.3" fill-opacity="0.16"/><circle cx="72.65" cy="-57.28" r="1.3" fill-opacity="0.16"/><circle cx="77.6" cy="-58.22" r="1.29" fill-opacity="0.16"/><circle cx="32.92" cy="-57.9" r="1.33" fill-opacity="0.16"/><circle cx="38.51" cy="-58.36" r="1.32" fill-opacity="0.16"/><circle cx="44.04" cy="-58.88" r="1.32" fill-opacity="0.16"/><circle cx="49.49" cy="-59.48" r="1.32" fill-opacity="0.16"/><circle cx="54.86" cy="-60.15" r="1.31" fill-opacity="0.16"/><circle cx="60.13" cy="-60.88" r="1.31" fill-opacity="0.16"/><circle cx="65.3" cy="-61.68" r="1.3" fill-opacity="0.16"/><circle cx="70.36" cy="-62.55" r="1.29" fill-opacity="0.16"/><circle cx="75.3" cy="-63.48" r="1.29" fill-opacity="0.16"/><circle cx="28.29" cy="-63.06" r="1.33" fill-opacity="0.16"/><circle cx="33.93" cy="-63.47" r="1.32" fill-opacity="0.16"/><circle cx="39.51" cy="-63.95" r="1.32" fill-opacity="0.16"/><circle cx="45.01" cy="-64.51" r="1.31" fill-opacity="0.16"/><circle cx="50.43" cy="-65.13" r="1.31" fill-opacity="0.16"/><circle cx="55.77" cy="-65.83" r="1.3" fill-opacity="0.16"/><circle cx="61" cy="-66.59" r="1.3" fill-opacity="0.16"/><circle cx="66.12" cy="-67.43" r="1.29" fill-opacity="0.16"/><circle cx="71.12" cy="-68.33" r="1.29" fill-opacity="0.16"/><circle cx="23.61" cy="-68.19" r="1.32" fill-opacity="0.16"/><circle cx="34.9" cy="-68.98" r="1.32" fill-opacity="0.16"/><circle cx="40.45" cy="-69.49" r="1.31" fill-opacity="0.16"/><circle cx="45.92" cy="-70.07" r="1.31" fill-opacity="0.16"/><circle cx="51.31" cy="-70.72" r="1.3" fill-opacity="0.16"/><circle cx="56.59" cy="-71.45" r="1.3" fill-opacity="0.16"/><circle cx="61.77" cy="-72.25" r="1.29" fill-opacity="0.16"/><circle cx="60.53" cy="-77.52" r="1.29" fill-opacity="0.16"/><circle cx="50.77" cy="-81.42" r="1.29" fill-opacity="0.16"/><circle cx="46.13" cy="-86.07" r="1.29" fill-opacity="0.16"/></g>
<g fill="#1f3d6e"><circle cx="-3.41" cy="98.61" r="1.29" fill-opacity="0.92"/><circle cx="2.38" cy="98.61" r="1.29" fill-opacity="0.92"/><circle cx="-9.71" cy="93.68" r="1.29" fill-opacity="0.93"/><circle cx="-3.92" cy="93.76" r="1.29" fill-opacity="0.93"/><circle cx="1.87" cy="93.77" r="1.29" fill-opacity="0.93"/><circle cx="7.65" cy="93.72" r="1.29" fill-opacity="0.93"/><circle cx="13.43" cy="93.61" r="1.29" fill-opacity="0.93"/><circle cx="19.19" cy="93.43" r="1.29" fill-opacity="0.93"/><circle cx="24.93" cy="93.2" r="1.29" fill-opacity="0.93"/><circle cx="30.64" cy="92.91" r="1.29" fill-opacity="0.92"/><circle cx="-7.09" cy="88.77" r="1.3" fill-opacity="0.94"/><circle cx="-1.29" cy="88.82" r="1.3" fill-opacity="0.94"/><circle cx="4.51" cy="88.8" r="1.3" fill-opacity="0.94"/><circle cx="10.31" cy="88.72" r="1.3" fill-opacity="0.94"/><circle cx="16.09" cy="88.58" r="1.3" fill-opacity="0.94"/><circle cx="21.86" cy="88.39" r="1.3" fill-opacity="0.93"/><circle cx="27.6" cy="88.13" r="1.3" fill-opacity="0.93"/><circle cx="33.31" cy="87.81" r="1.29" fill-opacity="0.93"/><circle cx="38.98" cy="87.43" r="1.29" fill-opacity="0.93"/><circle cx="44.61" cy="86.99" r="1.29" fill-opacity="0.92"/><circle cx="-4.45" cy="83.75" r="1.31" fill-opacity="0.94"/><circle cx="1.36" cy="83.77" r="1.31" fill-opacity="0.95"/><circle cx="7.16" cy="83.72" r="1.31" fill-opacity="0.94"/><circle cx="12.96" cy="83.62" r="1.31" fill-opacity="0.94"/><circle cx="18.75" cy="83.45" r="1.31" fill-opacity="0.94"/><circle cx="24.51" cy="83.23" r="1.3" fill-opacity="0.94"/><circle cx="30.25" cy="82.94" r="1.3" fill-opacity="0.94"/><circle cx="35.95" cy="82.6" r="1.3" fill-opacity="0.94"/><circle cx="41.61" cy="82.19" r="1.3" fill-opacity="0.93"/><circle cx="47.23" cy="81.73" r="1.29" fill-opacity="0.93"/><circle cx="52.79" cy="81.21" r="1.29" fill-opacity="0.92"/><circle cx="-7.62" cy="78.58" r="1.31" fill-opacity="0.95"/><circle cx="-1.81" cy="78.63" r="1.31" fill-opacity="0.95"/><circle cx="4" cy="78.62" r="1.31" fill-opacity="0.95"/><circle cx="9.81" cy="78.54" r="1.31" fill-opacity="0.95"/><circle cx="15.61" cy="78.41" r="1.31" fill-opacity="0.95"/><circle cx="21.39" cy="78.22" r="1.31" fill-opacity="0.95"/><circle cx="27.14" cy="77.97" r="1.31" fill-opacity="0.95"/><circle cx="32.86" cy="77.66" r="1.31" fill-opacity="0.94"/><circle cx="38.55" cy="77.29" r="1.3" fill-opacity="0.94"/><circle cx="44.19" cy="76.86" r="1.3" fill-opacity="0.94"/><circle cx="49.79" cy="76.37" r="1.3" fill-opacity="0.93"/><circle cx="55.33" cy="75.82" r="1.29" fill-opacity="0.93"/><circle cx="60.8" cy="75.22" r="1.29" fill-opacity="0.93"/><circle cx="-4.97" cy="73.38" r="1.32" fill-opacity="0.96"/><circle cx="0.84" cy="73.4" r="1.32" fill-opacity="0.96"/><circle cx="6.64" cy="73.36" r="1.32" fill-opacity="0.96"/><circle cx="12.44" cy="73.27" r="1.32" fill-opacity="0.96"/><circle cx="18.23" cy="73.11" r="1.32" fill-opacity="0.96"/><circle cx="23.99" cy="72.89" r="1.32" fill-opacity="0.95"/><circle cx="29.73" cy="72.61" r="1.31" fill-opacity="0.95"/><circle cx="35.43" cy="72.28" r="1.31" fill-opacity="0.95"/><circle cx="41.1" cy="71.88" r="1.31" fill-opacity="0.95"/><circle cx="46.72" cy="71.43" r="1.31" fill-opacity="0.94"/><circle cx="52.28" cy="70.92" r="1.3" fill-opacity="0.94"/><circle cx="57.79" cy="70.35" r="1.3" fill-opacity="0.93"/><circle cx="63.24" cy="69.72" r="1.29" fill-opacity="0.93"/><circle cx="68.61" cy="69.04" r="1.29" fill-opacity="0.92"/><circle cx="-8.11" cy="68.04" r="1.33" fill-opacity="0.96"/><circle cx="-2.32" cy="68.09" r="1.33" fill-opacity="0.96"/><circle cx="3.48" cy="68.09" r="1.33" fill-opacity="0.96"/><circle cx="9.27" cy="68.02" r="1.33" fill-opacity="0.96"/><circle cx="15.05" cy="67.9" r="1.33" fill-opacity="0.96"/><circle cx="20.82" cy="67.71" r="1.32" fill-opacity="0.96"/><circle cx="26.56" cy="67.47" r="1.32" fill-opacity="0.96"/><circle cx="32.27" cy="67.17" r="1.32" fill-opacity="0.96"/><circle cx="37.95" cy="66.8" r="1.32" fill-opacity="0.95"/><circle cx="43.59" cy="66.39" r="1.31" fill-opacity="0.95"/><circle cx="49.17" cy="65.91" r="1.31" fill-opacity="0.95"/><circle cx="54.71" cy="65.38" r="1.31" fill-opacity="0.94"/><circle cx="60.18" cy="64.79" r="1.3" fill-opacity="0.94"/><circle cx="65.59" cy="64.14" r="1.3" fill-opacity="0.93"/><circle cx="-13.93" cy="62.54" r="1.33" fill-opacity="0.97"/><circle cx="-8.13" cy="62.66" r="1.33" fill-opacity="0.97"/><circle cx="-2.32" cy="62.71" r="1.33" fill-opacity="0.97"/><circle cx="3.49" cy="62.7" r="1.33" fill-opacity="0.97"/><circle cx="9.29" cy="62.64" r="1.33" fill-opacity="0.97"/><circle cx="15.09" cy="62.51" r="1.33" fill-opacity="0.97"/><circle cx="20.87" cy="62.33" r="1.33" fill-opacity="0.97"/><circle cx="26.62" cy="62.08" r="1.33" fill-opacity="0.97"/><circle cx="32.35" cy="61.78" r="1.32" fill-opacity="0.96"/><circle cx="38.04" cy="61.42" r="1.32" fill-opacity="0.96"/><circle cx="43.69" cy="61" r="1.32" fill-opacity="0.96"/><circle cx="49.29" cy="60.52" r="1.32" fill-opacity="0.95"/><circle cx="54.83" cy="59.99" r="1.31" fill-opacity="0.95"/><circle cx="60.32" cy="59.4" r="1.31" fill-opacity="0.94"/><circle cx="65.74" cy="58.75" r="1.3" fill-opacity="0.94"/><circle cx="71.08" cy="58.05" r="1.3" fill-opacity="0.93"/><circle cx="-19.73" cy="56.92" r="1.33" fill-opacity="0.97"/><circle cx="-13.95" cy="57.09" r="1.34" fill-opacity="0.97"/><circle cx="-8.14" cy="57.2" r="1.34" fill-opacity="0.97"/><circle cx="-2.33" cy="57.26" r="1.34" fill-opacity="0.98"/><circle cx="3.49" cy="57.25" r="1.34" fill-opacity="0.98"/><circle cx="9.3" cy="57.19" r="1.34" fill-opacity="0.97"/><circle cx="15.1" cy="57.06" r="1.34" fill-opacity="0.97"/><circle cx="20.89" cy="56.88" r="1.33" fill-opacity="0.97"/><circle cx="26.65" cy="56.63" r="1.33" fill-opacity="0.97"/><circle cx="32.39" cy="56.33" r="1.33" fill-opacity="0.97"/><circle cx="38.08" cy="55.97" r="1.33" fill-opacity="0.96"/><circle cx="43.74" cy="55.55" r="1.32" fill-opacity="0.96"/><circle cx="49.34" cy="55.07" r="1.32" fill-opacity="0.96"/><circle cx="54.9" cy="54.53" r="1.32" fill-opacity="0.95"/><circle cx="60.39" cy="53.94" r="1.31" fill-opacity="0.95"/><circle cx="65.81" cy="53.29" r="1.31" fill-opacity="0.94"/><circle cx="71.17" cy="52.59" r="1.3" fill-opacity="0.94"/><circle cx="76.44" cy="51.83" r="1.3" fill-opacity="0.93"/><circle cx="-19.74" cy="51.4" r="1.34" fill-opacity="0.98"/><circle cx="-13.95" cy="51.58" r="1.34" fill-opacity="0.98"/><circle cx="-8.14" cy="51.69" r="1.34" fill-opacity="0.98"/><circle cx="-2.33" cy="51.74" r="1.34" fill-opacity="0.98"/><circle cx="3.49" cy="51.74" r="1.34" fill-opacity="0.98"/><circle cx="9.3" cy="51.67" r="1.34" fill-opacity="0.98"/><circle cx="15.11" cy="51.55" r="1.34" fill-opacity="0.98"/><circle cx="20.89" cy="51.36" r="1.34" fill-opacity="0.98"/><circle cx="26.65" cy="51.12" r="1.34" fill-opacity="0.97"/><circle cx="32.39" cy="50.81" r="1.33" fill-opacity="0.97"/><circle cx="38.09" cy="50.45" r="1.33" fill-opacity="0.97"/><circle cx="43.74" cy="50.03" r="1.33" fill-opacity="0.97"/><circle cx="49.35" cy="49.55" r="1.32" fill-opacity="0.96"/><circle cx="54.9" cy="49.02" r="1.32" fill-opacity="0.96"/><circle cx="60.39" cy="48.43" r="1.32" fill-opacity="0.95"/><circle cx="65.82" cy="47.78" r="1.31" fill-opacity="0.95"/><circle cx="71.17" cy="47.07" r="1.31" fill-opacity="0.94"/><circle cx="76.45" cy="46.32" r="1.3" fill-opacity="0.94"/><circle cx="-13.93" cy="46.01" r="1.34" fill-opacity="0.98"/><circle cx="-8.13" cy="46.12" r="1.34" fill-opacity="0.98"/><circle cx="-2.32" cy="46.17" r="1.34" fill-opacity="0.98"/><circle cx="3.49" cy="46.17" r="1.34" fill-opacity="0.98"/><circle cx="9.29" cy="46.1" r="1.34" fill-opacity="0.98"/><circle cx="15.09" cy="45.98" r="1.34" fill-opacity="0.98"/><circle cx="20.87" cy="45.79" r="1.34" fill-opacity="0.98"/><circle cx="26.63" cy="45.55" r="1.34" fill-opacity="0.98"/><circle cx="32.36" cy="45.24" r="1.34" fill-opacity="0.98"/><circle cx="38.05" cy="44.88" r="1.34" fill-opacity="0.97"/><circle cx="43.7" cy="44.46" r="1.33" fill-opacity="0.97"/><circle cx="49.3" cy="43.99" r="1.33" fill-opacity="0.97"/><circle cx="54.85" cy="43.45" r="1.32" fill-opacity="0.96"/><circle cx="60.33" cy="42.86" r="1.32" fill-opacity="0.96"/><circle cx="65.75" cy="42.21" r="1.32" fill-opacity="0.95"/><circle cx="71.1" cy="41.51" r="1.31" fill-opacity="0.95"/><circle cx="76.37" cy="40.75" r="1.3" fill-opacity="0.94"/><circle cx="81.55" cy="39.94" r="1.3" fill-opacity="0.93"/><circle cx="86.65" cy="39.07" r="1.29" fill-opacity="0.93"/><circle cx="-69.89" cy="36.04" r="1.31" fill-opacity="0.95"/><circle cx="-31.15" cy="39.69" r="1.34" fill-opacity="0.98"/><circle cx="-25.42" cy="39.98" r="1.34" fill-opacity="0.98"/><circle cx="-19.67" cy="40.21" r="1.35" fill-opacity="0.99"/><circle cx="-13.9" cy="40.38" r="1.35" fill-opacity="0.99"/><circle cx="-8.12" cy="40.5" r="1.35" fill-opacity="0.99"/><circle cx="-2.32" cy="40.55" r="1.35" fill-opacity="0.99"/><circle cx="3.48" cy="40.55" r="1.35" fill-opacity="0.99"/><circle cx="9.27" cy="40.48" r="1.35" fill-opacity="0.99"/><circle cx="15.06" cy="40.35" r="1.35" fill-opacity="0.99"/><circle cx="20.83" cy="40.17" r="1.35" fill-opacity="0.98"/><circle cx="26.57" cy="39.93" r="1.34" fill-opacity="0.98"/><circle cx="32.29" cy="39.62" r="1.34" fill-opacity="0.98"/><circle cx="37.97" cy="39.26" r="1.34" fill-opacity="0.98"/><circle cx="43.61" cy="38.84" r="1.34" fill-opacity="0.97"/><circle cx="49.19" cy="38.37" r="1.33" fill-opacity="0.97"/><circle cx="54.73" cy="37.83" r="1.33" fill-opacity="0.97"/><circle cx="60.21" cy="37.24" r="1.32" fill-opacity="0.96"/><circle cx="65.61" cy="36.6" r="1.32" fill-opacity="0.96"/><circle cx="70.95" cy="35.9" r="1.31" fill-opacity="0.95"/><circle cx="76.21" cy="35.14" r="1.31" fill-opacity="0.94"/><circle cx="81.38" cy="34.33" r="1.3" fill-opacity="0.94"/><circle cx="86.46" cy="33.47" r="1.29" fill-opacity="0.93"/><circle cx="91.45" cy="32.55" r="1.29" fill-opacity="0.92"/><circle cx="-77.67" cy="29.23" r="1.31" fill-opacity="0.95"/><circle cx="-72.43" cy="30.01" r="1.32" fill-opacity="0.95"/><circle cx="-67.11" cy="30.73" r="1.32" fill-opacity="0.96"/><circle cx="-61.71" cy="31.39" r="1.33" fill-opacity="0.96"/><circle cx="-56.24" cy="32" r="1.33" fill-opacity="0.97"/><circle cx="-50.71" cy="32.55" r="1.33" fill-opacity="0.97"/><circle cx="-45.13" cy="33.05" r="1.34" fill-opacity="0.98"/><circle cx="-39.49" cy="33.49" r="1.34" fill-opacity="0.98"/><circle cx="-33.81" cy="33.86" r="1.34" fill-opacity="0.98"/><circle cx="-28.09" cy="34.18" r="1.35" fill-opacity="0.99"/><circle cx="-22.34" cy="34.44" r="1.35" fill-opacity="0.99"/><circle cx="-16.57" cy="34.64" r="1.35" fill-opacity="0.99"/><circle cx="-10.78" cy="34.79" r="1.35" fill-opacity="0.99"/><circle cx="-4.97" cy="34.87" r="1.35" fill-opacity="0.99"/><circle cx="0.84" cy="34.89" r="1.35" fill-opacity="0.99"/><circle cx="6.65" cy="34.85" r="1.35" fill-opacity="0.99"/><circle cx="12.45" cy="34.75" r="1.35" fill-opacity="0.99"/><circle cx="18.24" cy="34.59" r="1.35" fill-opacity="0.99"/><circle cx="24.01" cy="34.37" r="1.35" fill-opacity="0.99"/><circle cx="29.75" cy="34.1" r="1.35" fill-opacity="0.98"/><circle cx="35.46" cy="33.76" r="1.34" fill-opacity="0.98"/><circle cx="41.12" cy="33.36" r="1.34" fill-opacity="0.98"/><circle cx="46.75" cy="32.91" r="1.34" fill-opacity="0.98"/><circle cx="52.32" cy="32.4" r="1.33" fill-opacity="0.97"/><circle cx="57.83" cy="31.83" r="1.33" fill-opacity="0.97"/><circle cx="63.27" cy="31.21" r="1.32" fill-opacity="0.96"/><circle cx="68.65" cy="30.52" r="1.32" fill-opacity="0.96"/><circle cx="73.95" cy="29.79" r="1.31" fill-opacity="0.95"/><circle cx="79.17" cy="29" r="1.31" fill-opacity="0.94"/><circle cx="84.3" cy="28.15" r="1.3" fill-opacity="0.94"/><circle cx="89.33" cy="27.26" r="1.29" fill-opacity="0.93"/><circle cx="94.27" cy="26.31" r="1.29" fill-opacity="0.92"/><circle cx="-80.08" cy="23.12" r="1.31" fill-opacity="0.95"/><circle cx="-74.87" cy="23.92" r="1.31" fill-opacity="0.95"/><circle cx="-69.59" cy="24.67" r="1.32" fill-opacity="0.96"/><circle cx="-64.22" cy="25.37" r="1.33" fill-opacity="0.96"/><circle cx="-58.79" cy="26.01" r="1.33" fill-opacity="0.97"/><circle cx="-53.28" cy="26.59" r="1.33" fill-opacity="0.97"/><circle cx="-47.72" cy="27.11" r="1.34" fill-opacity="0.98"/><circle cx="-42.1" cy="27.58" r="1.34" fill-opacity="0.98"/><circle cx="-36.44" cy="27.99" r="1.35" fill-opacity="0.98"/><circle cx="-30.73" cy="28.33" r="1.35" fill-opacity="0.99"/><circle cx="-24.99" cy="28.62" r="1.35" fill-opacity="0.99"/><circle cx="-19.22" cy="28.85" r="1.35" fill-opacity="0.99"/><circle cx="-13.43" cy="29.02" r="1.35" fill-opacity="0.99"/><circle cx="-7.62" cy="29.13" r="1.35" fill-opacity="0.99"/><circle cx="-1.81" cy="29.18" r="1.35" fill-opacity="0.99"/><circle cx="4.01" cy="29.17" r="1.35" fill-opacity="0.99"/><circle cx="9.82" cy="29.1" r="1.35" fill-opacity="0.99"/><circle cx="15.62" cy="28.97" r="1.35" fill-opacity="0.99"/><circle cx="21.4" cy="28.77" r="1.35" fill-opacity="0.99"/><circle cx="27.16" cy="28.52" r="1.35" fill-opacity="0.99"/><circle cx="32.89" cy="28.21" r="1.35" fill-opacity="0.99"/><circle cx="38.58" cy="27.84" r="1.34" fill-opacity="0.98"/><circle cx="44.23" cy="27.41" r="1.34" fill-opacity="0.98"/><circle cx="49.83" cy="26.92" r="1.34" fill-opacity="0.98"/><circle cx="55.37" cy="26.37" r="1.33" fill-opacity="0.97"/><circle cx="60.85" cy="25.77" r="1.33" fill-opacity="0.97"/><circle cx="66.26" cy="25.11" r="1.32" fill-opacity="0.96"/><circle cx="71.59" cy="24.4" r="1.32" fill-opacity="0.96"/><circle cx="76.85" cy="23.62" r="1.31" fill-opacity="0.95"/><circle cx="82.02" cy="22.8" r="1.31" fill-opacity="0.94"/><circle cx="87.09" cy="21.92" r="1.3" fill-opacity="0.94"/><circle cx="92.07" cy="20.99" r="1.29" fill-opacity="0.93"/><circle cx="-87.43" cy="16.08" r="1.3" fill-opacity="0.94"/><circle cx="-82.37" cy="16.96" r="1.31" fill-opacity="0.94"/><circle cx="-77.22" cy="17.8" r="1.31" fill-opacity="0.95"/><circle cx="-71.97" cy="18.58" r="1.32" fill-opacity="0.96"/><circle cx="-66.65" cy="19.3" r="1.33" fill-opacity="0.96"/><circle cx="-61.25" cy="19.97" r="1.33" fill-opacity="0.97"/><circle cx="-55.78" cy="20.58" r="1.33" fill-opacity="0.97"/><circle cx="-50.25" cy="21.13" r="1.34" fill-opacity="0.98"/><circle cx="-44.66" cy="21.63" r="1.34" fill-opacity="0.98"/><circle cx="-39.02" cy="22.06" r="1.35" fill-opacity="0.98"/><circle cx="-33.33" cy="22.44" r="1.35" fill-opacity="0.99"/><circle cx="-27.6" cy="22.76" r="1.35" fill-opacity="0.99"/><circle cx="-21.85" cy="23.02" r="1.35" fill-opacity="0.99"/><circle cx="-16.07" cy="23.22" r="1.35" fill-opacity="0.99"/><circle cx="-10.27" cy="23.35" r="1.36" fill-opacity="1"/><circle cx="-4.46" cy="23.43" r="1.36" fill-opacity="1"/><circle cx="1.36" cy="23.45" r="1.36" fill-opacity="1"/><circle cx="7.17" cy="23.4" r="1.36" fill-opacity="1"/><circle cx="12.98" cy="23.3" r="1.35" fill-opacity="0.99"/><circle cx="18.77" cy="23.13" r="1.35" fill-opacity="0.99"/><circle cx="24.54" cy="22.9" r="1.35" fill-opacity="0.99"/><circle cx="30.28" cy="22.62" r="1.35" fill-opacity="0.99"/><circle cx="35.99" cy="22.27" r="1.35" fill-opacity="0.99"/><circle cx="41.65" cy="21.87" r="1.34" fill-opacity="0.98"/><circle cx="47.27" cy="21.4" r="1.34" fill-opacity="0.98"/><circle cx="52.84" cy="20.88" r="1.34" fill-opacity="0.98"/><circle cx="58.34" cy="20.3" r="1.33" fill-opacity="0.97"/><circle cx="63.78" cy="19.66" r="1.33" fill-opacity="0.97"/><circle cx="69.15" cy="18.97" r="1.32" fill-opacity="0.96"/><circle cx="74.43" cy="18.22" r="1.32" fill-opacity="0.95"/><circle cx="79.63" cy="17.42" r="1.31" fill-opacity="0.95"/><circle cx="84.74" cy="16.56" r="1.3" fill-opacity="0.94"/><circle cx="89.76" cy="15.65" r="1.3" fill-opacity="0.93"/><circle cx="94.67" cy="14.68" r="1.29" fill-opacity="0.93"/><circle cx="-89.54" cy="9.86" r="1.3" fill-opacity="0.94"/><circle cx="-84.54" cy="10.78" r="1.31" fill-opacity="0.94"/><circle cx="-79.45" cy="11.64" r="1.31" fill-opacity="0.95"/><circle cx="-74.26" cy="12.44" r="1.32" fill-opacity="0.96"/><circle cx="-68.98" cy="13.2" r="1.32" fill-opacity="0.96"/><circle cx="-63.63" cy="13.89" r="1.33" fill-opacity="0.97"/><circle cx="-58.2" cy="14.53" r="1.33" fill-opacity="0.97"/><circle cx="-52.7" cy="15.11" r="1.34" fill-opacity="0.98"/><circle cx="-47.15" cy="15.64" r="1.34" fill-opacity="0.98"/><circle cx="-41.54" cy="16.1" r="1.35" fill-opacity="0.99"/><circle cx="-35.88" cy="16.51" r="1.35" fill-opacity="0.99"/><circle cx="-30.18" cy="16.86" r="1.35" fill-opacity="0.99"/><circle cx="-24.44" cy="17.14" r="1.35" fill-opacity="0.99"/><circle cx="-18.68" cy="17.37" r="1.36" fill-opacity="1"/><circle cx="-12.9" cy="17.53" r="1.36" fill-opacity="1"/><circle cx="-7.1" cy="17.64" r="1.36" fill-opacity="1"/><circle cx="-1.29" cy="17.68" r="1.36" fill-opacity="1"/><circle cx="4.52" cy="17.67" r="1.36" fill-opacity="1"/><circle cx="10.32" cy="17.59" r="1.36" fill-opacity="1"/><circle cx="16.11" cy="17.45" r="1.36" fill-opacity="1"/><circle cx="21.89" cy="17.25" r="1.35" fill-opacity="0.99"/><circle cx="27.63" cy="16.99" r="1.35" fill-opacity="0.99"/><circle cx="33.35" cy="16.67" r="1.35" fill-opacity="0.99"/><circle cx="39.03" cy="16.29" r="1.35" fill-opacity="0.99"/><circle cx="44.66" cy="15.85" r="1.34" fill-opacity="0.98"/><circle cx="50.24" cy="15.35" r="1.34" fill-opacity="0.98"/><circle cx="55.76" cy="14.8" r="1.34" fill-opacity="0.97"/><circle cx="61.22" cy="14.18" r="1.33" fill-opacity="0.97"/><circle cx="66.61" cy="13.51" r="1.33" fill-opacity="0.96"/><circle cx="71.92" cy="12.79" r="1.32" fill-opacity="0.96"/><circle cx="77.15" cy="12" r="1.32" fill-opacity="0.95"/><circle cx="-91.52" cy="3.62" r="1.3" fill-opacity="0.93"/><circle cx="-86.59" cy="4.56" r="1.3" fill-opacity="0.94"/><circle cx="-81.55" cy="5.45" r="1.31" fill-opacity="0.95"/><circle cx="-76.42" cy="6.29" r="1.32" fill-opacity="0.95"/><circle cx="-71.2" cy="7.06" r="1.32" fill-opacity="0.96"/><circle cx="-65.9" cy="7.79" r="1.33" fill-opacity="0.97"/><circle cx="-60.52" cy="8.45" r="1.33" fill-opacity="0.97"/><circle cx="-55.08" cy="9.06" r="1.34" fill-opacity="0.98"/><circle cx="-49.56" cy="9.62" r="1.34" fill-opacity="0.98"/><circle cx="-43.99" cy="10.11" r="1.35" fill-opacity="0.98"/><circle cx="-38.37" cy="10.54" r="1.35" fill-opacity="0.99"/><circle cx="-32.7" cy="10.92" r="1.35" fill-opacity="0.99"/><circle cx="-27" cy="11.23" r="1.35" fill-opacity="0.99"/><circle cx="-21.26" cy="11.49" r="1.36" fill-opacity="1"/><circle cx="-15.5" cy="11.68" r="1.36" fill-opacity="1"/><circle cx="-9.72" cy="11.82" r="1.36" fill-opacity="1"/><circle cx="-3.93" cy="11.89" r="1.36" fill-opacity="1"/><circle cx="1.87" cy="11.9" r="1.36" fill-opacity="1"/><circle cx="7.66" cy="11.85" r="1.36" fill-opacity="1"/><circle cx="13.45" cy="11.74" r="1.36" fill-opacity="1"/><circle cx="19.21" cy="11.57" r="1.36" fill-opacity="1"/><circle cx="24.96" cy="11.33" r="1.35" fill-opacity="0.99"/><circle cx="30.68" cy="11.04" r="1.35" fill-opacity="0.99"/><circle cx="36.36" cy="10.69" r="1.35" fill-opacity="0.99"/><circle cx="42" cy="10.27" r="1.35" fill-opacity="0.99"/><circle cx="47.59" cy="9.8" r="1.34" fill-opacity="0.98"/><circle cx="53.12" cy="9.27" r="1.34" fill-opacity="0.98"/><circle cx="58.59" cy="8.68" r="1.34" fill-opacity="0.97"/><circle cx="64" cy="8.03" r="1.33" fill-opacity="0.97"/><circle cx="69.33" cy="7.33" r="1.32" fill-opacity="0.96"/><circle cx="-86.22" cy="-1.24" r="1.3" fill-opacity="0.94"/><circle cx="-81.19" cy="-0.35" r="1.31" fill-opacity="0.95"/><circle cx="-76.05" cy="0.49" r="1.32" fill-opacity="0.96"/><circle cx="-70.83" cy="1.27" r="1.32" fill-opacity="0.96"/><circle cx="-65.52" cy="2" r="1.33" fill-opacity="0.97"/><circle cx="-60.13" cy="2.67" r="1.33" fill-opacity="0.97"/><circle cx="-54.68" cy="3.29" r="1.34" fill-opacity="0.98"/><circle cx="-49.15" cy="3.84" r="1.34" fill-opacity="0.98"/><circle cx="-43.57" cy="4.33" r="1.35" fill-opacity="0.99"/><circle cx="-37.94" cy="4.77" r="1.35" fill-opacity="0.99"/><circle cx="-32.26" cy="5.14" r="1.35" fill-opacity="0.99"/><circle cx="-26.54" cy="5.46" r="1.35" fill-opacity="0.99"/><circle cx="-20.79" cy="5.71" r="1.36" fill-opacity="1"/><circle cx="-15.01" cy="5.9" r="1.36" fill-opacity="1"/><circle cx="-9.22" cy="6.03" r="1.36" fill-opacity="1"/><circle cx="-3.42" cy="6.1" r="1.36" fill-opacity="1"/><circle cx="2.39" cy="6.1" r="1.36" fill-opacity="1"/><circle cx="8.19" cy="6.05" r="1.36" fill-opacity="1"/><circle cx="13.99" cy="5.93" r="1.36" fill-opacity="1"/><circle cx="19.76" cy="5.75" r="1.36" fill-opacity="1"/><circle cx="25.52" cy="5.51" r="1.35" fill-opacity="0.99"/><circle cx="31.24" cy="5.2" r="1.35" fill-opacity="0.99"/><circle cx="36.93" cy="4.84" r="1.35" fill-opacity="0.99"/><circle cx="42.57" cy="4.42" r="1.35" fill-opacity="0.99"/><circle cx="48.16" cy="3.93" r="1.34" fill-opacity="0.98"/><circle cx="53.7" cy="3.39" r="1.34" fill-opacity="0.98"/><circle cx="59.17" cy="2.79" r="1.34" fill-opacity="0.97"/><circle cx="64.57" cy="2.13" r="1.33" fill-opacity="0.97"/><circle cx="-85.77" cy="-7.04" r="1.3" fill-opacity="0.94"/><circle cx="-80.73" cy="-6.15" r="1.31" fill-opacity="0.95"/><circle cx="-75.6" cy="-5.3" r="1.32" fill-opacity="0.96"/><circle cx="-70.38" cy="-4.52" r="1.32" fill-opacity="0.96"/><circle cx="-65.07" cy="-3.79" r="1.33" fill-opacity="0.97"/><circle cx="-59.68" cy="-3.11" r="1.33" fill-opacity="0.97"/><circle cx="-54.22" cy="-2.5" r="1.34" fill-opacity="0.98"/><circle cx="-48.69" cy="-1.94" r="1.34" fill-opacity="0.98"/><circle cx="-43.1" cy="-1.45" r="1.35" fill-opacity="0.99"/><circle cx="-37.46" cy="-1.01" r="1.35" fill-opacity="0.99"/><circle cx="-31.78" cy="-0.64" r="1.35" fill-opacity="0.99"/><circle cx="-26.05" cy="-0.33" r="1.35" fill-opacity="0.99"/><circle cx="-20.29" cy="-0.08" r="1.36" fill-opacity="1"/><circle cx="-14.51" cy="0.11" r="1.36" fill-opacity="1"/><circle cx="-8.72" cy="0.23" r="1.36" fill-opacity="1"/><circle cx="-2.91" cy="0.3" r="1.36" fill-opacity="1"/><circle cx="2.91" cy="0.3" r="1.36" fill-opacity="1"/><circle cx="8.72" cy="0.23" r="1.36" fill-opacity="1"/><circle cx="14.51" cy="0.11" r="1.36" fill-opacity="1"/><circle cx="20.29" cy="-0.08" r="1.36" fill-opacity="1"/><circle cx="26.05" cy="-0.33" r="1.35" fill-opacity="0.99"/><circle cx="31.78" cy="-0.64" r="1.35" fill-opacity="0.99"/><circle cx="37.46" cy="-1.01" r="1.35" fill-opacity="0.99"/><circle cx="43.1" cy="-1.45" r="1.35" fill-opacity="0.99"/><circle cx="48.69" cy="-1.94" r="1.34" fill-opacity="0.98"/><circle cx="54.22" cy="-2.5" r="1.34" fill-opacity="0.98"/><circle cx="59.68" cy="-3.11" r="1.33" fill-opacity="0.97"/><circle cx="-85.22" cy="-12.84" r="1.3" fill-opacity="0.94"/><circle cx="-80.19" cy="-11.94" r="1.31" fill-opacity="0.95"/><circle cx="-75.07" cy="-11.09" r="1.32" fill-opacity="0.96"/><circle cx="-69.85" cy="-10.3" r="1.32" fill-opacity="0.96"/><circle cx="-64.54" cy="-9.57" r="1.33" fill-opacity="0.97"/><circle cx="-59.16" cy="-8.89" r="1.33" fill-opacity="0.97"/><circle cx="-53.7" cy="-8.28" r="1.34" fill-opacity="0.98"/><circle cx="-48.17" cy="-7.72" r="1.34" fill-opacity="0.98"/><circle cx="-42.58" cy="-7.23" r="1.35" fill-opacity="0.99"/><circle cx="-36.94" cy="-6.79" r="1.35" fill-opacity="0.99"/><circle cx="-31.26" cy="-6.42" r="1.35" fill-opacity="0.99"/><circle cx="-25.53" cy="-6.11" r="1.35" fill-opacity="0.99"/><circle cx="-19.78" cy="-5.87" r="1.36" fill-opacity="1"/><circle cx="-14" cy="-5.68" r="1.36" fill-opacity="1"/><circle cx="-8.2" cy="-5.56" r="1.36" fill-opacity="1"/><circle cx="-2.39" cy="-5.5" r="1.36" fill-opacity="1"/><circle cx="3.42" cy="-5.51" r="1.36" fill-opacity="1"/><circle cx="9.23" cy="-5.58" r="1.36" fill-opacity="1"/><circle cx="15.03" cy="-5.71" r="1.36" fill-opacity="1"/><circle cx="20.8" cy="-5.9" r="1.36" fill-opacity="1"/><circle cx="26.55" cy="-6.16" r="1.35" fill-opacity="0.99"/><circle cx="32.27" cy="-6.48" r="1.35" fill-opacity="0.99"/><circle cx="37.95" cy="-6.87" r="1.35" fill-opacity="0.99"/><circle cx="43.58" cy="-7.31" r="1.35" fill-opacity="0.99"/><circle cx="49.16" cy="-7.82" r="1.34" fill-opacity="0.98"/><circle cx="54.67" cy="-8.38" r="1.34" fill-opacity="0.98"/><circle cx="-84.57" cy="-18.62" r="1.3" fill-opacity="0.94"/><circle cx="-79.56" cy="-17.72" r="1.31" fill-opacity="0.95"/><circle cx="-74.45" cy="-16.87" r="1.32" fill-opacity="0.95"/><circle cx="-69.24" cy="-16.08" r="1.32" fill-opacity="0.96"/><circle cx="-63.95" cy="-15.34" r="1.33" fill-opacity="0.97"/><circle cx="-58.57" cy="-14.67" r="1.33" fill-opacity="0.97"/><circle cx="-53.12" cy="-14.05" r="1.34" fill-opacity="0.98"/><circle cx="-47.6" cy="-13.49" r="1.34" fill-opacity="0.98"/><circle cx="-42.02" cy="-13" r="1.35" fill-opacity="0.99"/><circle cx="-36.39" cy="-12.57" r="1.35" fill-opacity="0.99"/><circle cx="-30.71" cy="-12.2" r="1.35" fill-opacity="0.99"/><circle cx="-24.99" cy="-11.89" r="1.35" fill-opacity="0.99"/><circle cx="-19.24" cy="-11.65" r="1.36" fill-opacity="1"/><circle cx="-13.46" cy="-11.47" r="1.36" fill-opacity="1"/><circle cx="-7.67" cy="-11.35" r="1.36" fill-opacity="1"/><circle cx="-1.87" cy="-11.3" r="1.36" fill-opacity="1"/><circle cx="3.93" cy="-11.31" r="1.36" fill-opacity="1"/><circle cx="9.73" cy="-11.38" r="1.36" fill-opacity="1"/><circle cx="15.52" cy="-11.52" r="1.36" fill-opacity="1"/><circle cx="21.29" cy="-11.73" r="1.36" fill-opacity="1"/><circle cx="27.03" cy="-11.99" r="1.35" fill-opacity="0.99"/><circle cx="32.73" cy="-12.32" r="1.35" fill-opacity="0.99"/><circle cx="38.4" cy="-12.71" r="1.35" fill-opacity="0.99"/><circle cx="44.01" cy="-13.17" r="1.35" fill-opacity="0.98"/><circle cx="49.57" cy="-13.69" r="1.34" fill-opacity="0.98"/><circle cx="55.07" cy="-14.26" r="1.34" fill-opacity="0.98"/><circle cx="-83.83" cy="-24.39" r="1.3" fill-opacity="0.94"/><circle cx="-78.84" cy="-23.48" r="1.31" fill-opacity="0.95"/><circle cx="-73.75" cy="-22.63" r="1.32" fill-opacity="0.95"/><circle cx="-68.56" cy="-21.83" r="1.32" fill-opacity="0.96"/><circle cx="-63.28" cy="-21.1" r="1.33" fill-opacity="0.97"/><circle cx="-57.92" cy="-20.42" r="1.33" fill-opacity="0.97"/><circle cx="-52.48" cy="-19.81" r="1.34" fill-opacity="0.98"/><circle cx="-46.98" cy="-19.25" r="1.34" fill-opacity="0.98"/><circle cx="-41.41" cy="-18.76" r="1.35" fill-opacity="0.98"/><circle cx="-35.79" cy="-18.33" r="1.35" fill-opacity="0.99"/><circle cx="-30.12" cy="-17.96" r="1.35" fill-opacity="0.99"/><circle cx="-24.42" cy="-17.65" r="1.35" fill-opacity="0.99"/><circle cx="-18.68" cy="-17.41" r="1.36" fill-opacity="1"/><circle cx="-12.92" cy="-17.24" r="1.36" fill-opacity="1"/><circle cx="-7.14" cy="-17.13" r="1.36" fill-opacity="1"/><circle cx="-1.35" cy="-17.08" r="1.36" fill-opacity="1"/><circle cx="4.44" cy="-17.1" r="1.36" fill-opacity="1"/><circle cx="10.22" cy="-17.18" r="1.36" fill-opacity="1"/><circle cx="15.99" cy="-17.32" r="1.36" fill-opacity="1"/><circle cx="21.74" cy="-17.53" r="1.35" fill-opacity="0.99"/><circle cx="27.47" cy="-17.81" r="1.35" fill-opacity="0.99"/><circle cx="33.15" cy="-18.15" r="1.35" fill-opacity="0.99"/><circle cx="38.8" cy="-18.55" r="1.35" fill-opacity="0.99"/><circle cx="44.39" cy="-19.01" r="1.34" fill-opacity="0.98"/><circle cx="49.92" cy="-19.54" r="1.34" fill-opacity="0.98"/><circle cx="-80.73" cy="-29.7" r="1.3" fill-opacity="0.94"/><circle cx="-75.69" cy="-28.81" r="1.31" fill-opacity="0.95"/><circle cx="-70.54" cy="-27.98" r="1.32" fill-opacity="0.96"/><circle cx="-65.3" cy="-27.21" r="1.32" fill-opacity="0.96"/><circle cx="-59.98" cy="-26.5" r="1.33" fill-opacity="0.97"/><circle cx="-54.57" cy="-25.85" r="1.33" fill-opacity="0.97"/><circle cx="-49.09" cy="-25.26" r="1.34" fill-opacity="0.98"/><circle cx="-43.54" cy="-24.73" r="1.34" fill-opacity="0.98"/><circle cx="-37.93" cy="-24.27" r="1.35" fill-opacity="0.98"/><circle cx="-32.27" cy="-23.87" r="1.35" fill-opacity="0.99"/><circle cx="-26.57" cy="-23.54" r="1.35" fill-opacity="0.99"/><circle cx="-20.83" cy="-23.27" r="1.35" fill-opacity="0.99"/><circle cx="-15.07" cy="-23.06" r="1.35" fill-opacity="0.99"/><circle cx="-9.28" cy="-22.93" r="1.36" fill-opacity="1"/><circle cx="-3.48" cy="-22.85" r="1.36" fill-opacity="1"/><circle cx="2.32" cy="-22.85" r="1.36" fill-opacity="1"/><circle cx="8.12" cy="-22.91" r="1.36" fill-opacity="1"/><circle cx="13.91" cy="-23.03" r="1.35" fill-opacity="0.99"/><circle cx="19.68" cy="-23.22" r="1.35" fill-opacity="0.99"/><circle cx="25.43" cy="-23.48" r="1.35" fill-opacity="0.99"/><circle cx="31.14" cy="-23.8" r="1.35" fill-opacity="0.99"/><circle cx="36.8" cy="-24.19" r="1.35" fill-opacity="0.99"/><circle cx="42.42" cy="-24.64" r="1.34" fill-opacity="0.98"/><circle cx="47.98" cy="-25.15" r="1.34" fill-opacity="0.98"/><circle cx="-72.43" cy="-34.12" r="1.31" fill-opacity="0.95"/><circle cx="-67.24" cy="-33.31" r="1.32" fill-opacity="0.96"/><circle cx="-61.95" cy="-32.56" r="1.32" fill-opacity="0.96"/><circle cx="-56.58" cy="-31.88" r="1.33" fill-opacity="0.97"/><circle cx="-51.13" cy="-31.26" r="1.33" fill-opacity="0.97"/><circle cx="-45.61" cy="-30.7" r="1.34" fill-opacity="0.98"/><circle cx="-40.02" cy="-30.2" r="1.34" fill-opacity="0.98"/><circle cx="-34.38" cy="-29.77" r="1.35" fill-opacity="0.98"/><circle cx="-28.69" cy="-29.41" r="1.35" fill-opacity="0.99"/><circle cx="-22.96" cy="-29.11" r="1.35" fill-opacity="0.99"/><circle cx="-17.2" cy="-28.88" r="1.35" fill-opacity="0.99"/><circle cx="-11.42" cy="-28.71" r="1.35" fill-opacity="0.99"/><circle cx="-5.62" cy="-28.61" r="1.35" fill-opacity="0.99"/><circle cx="0.19" cy="-28.58" r="1.35" fill-opacity="0.99"/><circle cx="6" cy="-28.62" r="1.35" fill-opacity="0.99"/><circle cx="11.8" cy="-28.72" r="1.35" fill-opacity="0.99"/><circle cx="17.59" cy="-28.89" r="1.35" fill-opacity="0.99"/><circle cx="23.35" cy="-29.13" r="1.35" fill-opacity="0.99"/><circle cx="29.07" cy="-29.43" r="1.35" fill-opacity="0.99"/><circle cx="34.76" cy="-29.8" r="1.35" fill-opacity="0.98"/><circle cx="40.4" cy="-30.23" r="1.34" fill-opacity="0.98"/><circle cx="45.98" cy="-30.73" r="1.34" fill-opacity="0.98"/><circle cx="-63.84" cy="-38.61" r="1.32" fill-opacity="0.96"/><circle cx="-58.51" cy="-37.89" r="1.32" fill-opacity="0.96"/><circle cx="-53.11" cy="-37.24" r="1.33" fill-opacity="0.97"/><circle cx="-47.62" cy="-36.65" r="1.33" fill-opacity="0.97"/><circle cx="-42.07" cy="-36.12" r="1.34" fill-opacity="0.98"/><circle cx="-36.45" cy="-35.66" r="1.34" fill-opacity="0.98"/><circle cx="-30.78" cy="-35.26" r="1.34" fill-opacity="0.98"/><circle cx="-25.07" cy="-34.93" r="1.35" fill-opacity="0.99"/><circle cx="-19.32" cy="-34.67" r="1.35" fill-opacity="0.99"/><circle cx="-13.54" cy="-34.48" r="1.35" fill-opacity="0.99"/><circle cx="-7.75" cy="-34.35" r="1.35" fill-opacity="0.99"/><circle cx="-1.94" cy="-34.29" r="1.35" fill-opacity="0.99"/><circle cx="3.87" cy="-34.31" r="1.35" fill-opacity="0.99"/><circle cx="9.68" cy="-34.39" r="1.35" fill-opacity="0.99"/><circle cx="15.47" cy="-34.53" r="1.35" fill-opacity="0.99"/><circle cx="21.24" cy="-34.75" r="1.35" fill-opacity="0.99"/><circle cx="26.98" cy="-35.03" r="1.35" fill-opacity="0.99"/><circle cx="32.68" cy="-35.38" r="1.34" fill-opacity="0.98"/><circle cx="38.33" cy="-35.8" r="1.34" fill-opacity="0.98"/><circle cx="43.92" cy="-36.29" r="1.34" fill-opacity="0.98"/><circle cx="-60.35" cy="-43.89" r="1.32" fill-opacity="0.96"/><circle cx="-55" cy="-43.2" r="1.32" fill-opacity="0.96"/><circle cx="-49.56" cy="-42.57" r="1.33" fill-opacity="0.97"/><circle cx="-44.04" cy="-42.01" r="1.33" fill-opacity="0.97"/><circle cx="-38.46" cy="-41.51" r="1.34" fill-opacity="0.98"/><circle cx="-32.82" cy="-41.09" r="1.34" fill-opacity="0.98"/><circle cx="-27.14" cy="-40.73" r="1.34" fill-opacity="0.98"/><circle cx="-21.41" cy="-40.44" r="1.35" fill-opacity="0.98"/><circle cx="-15.65" cy="-40.21" r="1.35" fill-opacity="0.99"/><circle cx="-9.86" cy="-40.06" r="1.35" fill-opacity="0.99"/><circle cx="-4.06" cy="-39.98" r="1.35" fill-opacity="0.99"/><circle cx="13.34" cy="-40.15" r="1.35" fill-opacity="0.99"/><circle cx="19.11" cy="-40.34" r="1.35" fill-opacity="0.99"/><circle cx="24.85" cy="-40.6" r="1.34" fill-opacity="0.98"/><circle cx="30.55" cy="-40.94" r="1.34" fill-opacity="0.98"/><circle cx="36.21" cy="-41.34" r="1.34" fill-opacity="0.98"/><circle cx="41.82" cy="-41.8" r="1.34" fill-opacity="0.97"/><circle cx="-56.79" cy="-49.13" r="1.32" fill-opacity="0.96"/><circle cx="-51.41" cy="-48.47" r="1.32" fill-opacity="0.96"/><circle cx="-45.94" cy="-47.87" r="1.33" fill-opacity="0.97"/><circle cx="-40.41" cy="-47.34" r="1.33" fill-opacity="0.97"/><circle cx="-34.81" cy="-46.88" r="1.34" fill-opacity="0.97"/><circle cx="-29.16" cy="-46.49" r="1.34" fill-opacity="0.98"/><circle cx="-23.46" cy="-46.17" r="1.34" fill-opacity="0.98"/><circle cx="-17.72" cy="-45.92" r="1.34" fill-opacity="0.98"/><circle cx="-11.96" cy="-45.74" r="1.34" fill-opacity="0.98"/><circle cx="-50.54" cy="-54.01" r="1.32" fill-opacity="0.96"/><circle cx="-45.06" cy="-53.41" r="1.32" fill-opacity="0.96"/><circle cx="-39.51" cy="-52.88" r="1.33" fill-opacity="0.97"/><circle cx="-33.9" cy="-52.42" r="1.33" fill-opacity="0.97"/><circle cx="-28.22" cy="-52.03" r="1.34" fill-opacity="0.97"/><circle cx="-22.5" cy="-51.71" r="1.34" fill-opacity="0.98"/><circle cx="-16.75" cy="-51.47" r="1.34" fill-opacity="0.98"/><circle cx="23.78" cy="-51.78" r="1.34" fill-opacity="0.98"/><circle cx="40.75" cy="-52.99" r="1.33" fill-opacity="0.97"/><circle cx="-52.25" cy="-59.81" r="1.31" fill-opacity="0.95"/><circle cx="-46.84" cy="-59.18" r="1.32" fill-opacity="0.96"/><circle cx="-24.49" cy="-57.35" r="1.33" fill-opacity="0.97"/><circle cx="-18.78" cy="-57.08" r="1.33" fill-opacity="0.97"/><circle cx="-13.03" cy="-56.87" r="1.34" fill-opacity="0.97"/><circle cx="15.84" cy="-56.96" r="1.34" fill-opacity="0.97"/><circle cx="-56.59" cy="-65.94" r="1.3" fill-opacity="0.94"/><circle cx="-51.27" cy="-65.23" r="1.31" fill-opacity="0.95"/><circle cx="-45.86" cy="-64.6" r="1.31" fill-opacity="0.95"/><circle cx="-40.37" cy="-64.03" r="1.32" fill-opacity="0.96"/><circle cx="16.88" cy="-62.47" r="1.33" fill-opacity="0.97"/><circle cx="-55.55" cy="-71.3" r="1.3" fill-opacity="0.94"/><circle cx="-50.24" cy="-70.59" r="1.3" fill-opacity="0.94"/><circle cx="-44.83" cy="-69.95" r="1.31" fill-opacity="0.95"/><circle cx="-39.34" cy="-69.38" r="1.31" fill-opacity="0.95"/><circle cx="-16.74" cy="-67.86" r="1.32" fill-opacity="0.96"/><circle cx="0.58" cy="-67.53" r="1.33" fill-opacity="0.97"/><circle cx="12.14" cy="-67.71" r="1.33" fill-opacity="0.96"/><circle cx="17.89" cy="-67.91" r="1.32" fill-opacity="0.96"/><circle cx="-51.92" cy="-76.23" r="1.3" fill-opacity="0.93"/><circle cx="-46.54" cy="-75.54" r="1.3" fill-opacity="0.94"/><circle cx="-41.07" cy="-74.93" r="1.31" fill-opacity="0.94"/><circle cx="-35.51" cy="-74.39" r="1.31" fill-opacity="0.95"/><circle cx="-29.88" cy="-73.93" r="1.31" fill-opacity="0.95"/><circle cx="-6.85" cy="-72.91" r="1.32" fill-opacity="0.96"/><circle cx="10.6" cy="-72.98" r="1.32" fill-opacity="0.96"/><circle cx="16.39" cy="-73.17" r="1.32" fill-opacity="0.96"/><circle cx="22.15" cy="-73.44" r="1.32" fill-opacity="0.95"/><circle cx="-34.4" cy="-79.58" r="1.3" fill-opacity="0.94"/><circle cx="-28.79" cy="-79.12" r="1.31" fill-opacity="0.94"/><circle cx="-23.1" cy="-78.75" r="1.31" fill-opacity="0.95"/><circle cx="-17.37" cy="-78.46" r="1.31" fill-opacity="0.95"/><circle cx="-11.6" cy="-78.25" r="1.31" fill-opacity="0.95"/><circle cx="0" cy="-78.08" r="1.32" fill-opacity="0.95"/><circle cx="5.81" cy="-78.13" r="1.32" fill-opacity="0.95"/><circle cx="11.6" cy="-78.25" r="1.31" fill-opacity="0.95"/><circle cx="17.37" cy="-78.46" r="1.31" fill-opacity="0.95"/><circle cx="23.1" cy="-78.75" r="1.31" fill-opacity="0.95"/><circle cx="-33.26" cy="-84.68" r="1.3" fill-opacity="0.93"/><circle cx="-27.66" cy="-84.23" r="1.3" fill-opacity="0.94"/><circle cx="-22" cy="-83.86" r="1.3" fill-opacity="0.94"/><circle cx="-16.29" cy="-83.58" r="1.31" fill-opacity="0.94"/><circle cx="-10.53" cy="-83.38" r="1.31" fill-opacity="0.94"/><circle cx="-4.76" cy="-83.26" r="1.31" fill-opacity="0.95"/><circle cx="1.03" cy="-83.24" r="1.31" fill-opacity="0.95"/><circle cx="6.81" cy="-83.29" r="1.31" fill-opacity="0.95"/><circle cx="12.58" cy="-83.44" r="1.31" fill-opacity="0.94"/><circle cx="18.32" cy="-83.67" r="1.31" fill-opacity="0.94"/><circle cx="24.02" cy="-83.98" r="1.3" fill-opacity="0.94"/><circle cx="29.66" cy="-84.38" r="1.3" fill-opacity="0.94"/><circle cx="35.24" cy="-84.86" r="1.3" fill-opacity="0.93"/><circle cx="-34.87" cy="-89.94" r="1.29" fill-opacity="0.93"/><circle cx="-29.29" cy="-89.45" r="1.29" fill-opacity="0.93"/><circle cx="-23.64" cy="-89.04" r="1.3" fill-opacity="0.93"/><circle cx="-17.92" cy="-88.72" r="1.3" fill-opacity="0.94"/><circle cx="-12.17" cy="-88.49" r="1.3" fill-opacity="0.94"/><circle cx="-6.38" cy="-88.35" r="1.3" fill-opacity="0.94"/><circle cx="-0.58" cy="-88.29" r="1.3" fill-opacity="0.94"/><circle cx="5.22" cy="-88.33" r="1.3" fill-opacity="0.94"/><circle cx="11.01" cy="-88.45" r="1.3" fill-opacity="0.94"/><circle cx="16.78" cy="-88.67" r="1.3" fill-opacity="0.94"/><circle cx="22.5" cy="-88.97" r="1.3" fill-opacity="0.93"/><circle cx="28.16" cy="-89.36" r="1.29" fill-opacity="0.93"/><circle cx="33.76" cy="-89.84" r="1.29" fill-opacity="0.93"/><circle cx="39.27" cy="-90.4" r="1.29" fill-opacity="0.92"/><circle cx="-25.25" cy="-94.14" r="1.29" fill-opacity="0.92"/><circle cx="-19.55" cy="-93.78" r="1.29" fill-opacity="0.93"/><circle cx="-13.8" cy="-93.52" r="1.29" fill-opacity="0.93"/><circle cx="-8.01" cy="-93.34" r="1.29" fill-opacity="0.93"/><circle cx="-2.2" cy="-93.26" r="1.29" fill-opacity="0.93"/><circle cx="3.62" cy="-93.27" r="1.29" fill-opacity="0.93"/><circle cx="9.43" cy="-93.38" r="1.29" fill-opacity="0.93"/><circle cx="15.21" cy="-93.57" r="1.29" fill-opacity="0.93"/><circle cx="20.95" cy="-93.86" r="1.29" fill-opacity="0.93"/><circle cx="26.63" cy="-94.25" r="1.29" fill-opacity="0.92"/><circle cx="-9.63" cy="-98.25" r="1.28" fill-opacity="0.92"/><circle cx="-3.82" cy="-98.13" r="1.29" fill-opacity="0.92"/><circle cx="2.01" cy="-98.12" r="1.29" fill-opacity="0.92"/><circle cx="7.82" cy="-98.2" r="1.29" fill-opacity="0.92"/></g>

</svg>
